<?xml version="1.0" encoding="UTF-8" standalone="no"?>
<svg
   xmlns:dc="http://purl.org/dc/elements/1.1/"
   xmlns:cc="http://creativecommons.org/ns#"
   xmlns:rdf="http://www.w3.org/1999/02/22-rdf-syntax-ns#"
   xmlns:svg="http://www.w3.org/2000/svg"
   xmlns="http://www.w3.org/2000/svg"
   xmlns:sodipodi="http://sodipodi.sourceforge.net/DTD/sodipodi-0.dtd"
   xmlns:inkscape="http://www.inkscape.org/namespaces/inkscape"
   x="0in"
   id="svg2"
   y="0in"
   height="1.207387in"
   viewBox="0 0 184.25367 86.931861"
   width="2.5590832in"
   version="1.2"
   gorn="0"
   sodipodi:docname="Inky_pHAT_resized.svg"
   inkscape:version="1.0.2 (e86c870879, 2021-01-15)">
  <sodipodi:namedview
     pagecolor="#ffffff"
     bordercolor="#666666"
     borderopacity="1"
     objecttolerance="10"
     gridtolerance="10"
     guidetolerance="10"
     inkscape:pageopacity="0"
     inkscape:pageshadow="2"
     inkscape:window-width="1557"
     inkscape:window-height="771"
     id="namedview1106"
     showgrid="false"
     inkscape:snap-object-midpoints="false"
     inkscape:zoom="2"
     inkscape:cx="42.888041"
     inkscape:cy="83.55384"
     inkscape:window-x="2029"
     inkscape:window-y="63"
     inkscape:window-maximized="0"
     inkscape:current-layer="svg2"
     fit-margin-top="0"
     fit-margin-left="0"
     fit-margin-right="0"
     fit-margin-bottom="0" />
  <desc
     id="desc2">
    <referenceFile>Speaker Bonnet rev B_breadboard.svg</referenceFile>
  </desc>
  <metadata
     id="metadata30083">
    <rdf:RDF>
      <cc:Work
         rdf:about="">
        <dc:title></dc:title>
      </cc:Work>
    </rdf:RDF>
  </metadata>
  <defs
     id="defs30081">
    <clipPath
       id="clip0">
      <rect
         width="2.5590601"
         height="1.2071"
         fill="#ffffff"
         id="rect2029"
         x="0"
         y="0" />
    </clipPath>
    <clipPath
       id="clip0-7">
      <rect
         width="2.5590601"
         height="1.2071"
         fill="#ffffff"
         id="rect2207"
         x="0"
         y="0" />
    </clipPath>
    <clipPath
       id="clip0-6">
      <rect
         width="2.5590601"
         height="1.2071"
         fill="#ffffff"
         id="rect2495"
         x="0"
         y="0" />
    </clipPath>
  </defs>
  <desc
     id="desc4">Fritzing breadboard generated by brd2svg</desc>
  <g
     style="fill:none"
     id="g2557"
     transform="matrix(72.048941,0,0,72.048941,-1.595352e-4,0)">
    <g
       clip-path="url(#clip0-6)"
       id="g2493">
      <rect
         x="-0.00265503"
         y="-0.0034332301"
         width="2.5599999"
         height="1.21"
         rx="0.12"
         fill="#000000"
         id="rect2397" />
      <rect
         x="0.105469"
         y="0.0195312"
         width="2.34375"
         height="1.16804"
         fill="#d4dada"
         id="rect2399" />
      <rect
         y="0.390625"
         width="0.105469"
         height="0.42584199"
         fill="#d28a00"
         id="rect2401"
         x="0" />
      <path
         d="M 0.105469,1.18757 V 0.0195312 H 0.196314 V 0.199219 h 0.069311 c 0.034511,0 0.034511,0.044305 0.034511,0.044305 V 1.18757 Z"
         fill="#ffffff"
         id="path2403" />
      <rect
         x="0.175781"
         y="0.46093801"
         width="0.0270213"
         height="0.28125"
         rx="0.0135107"
         fill="#c4c4c4"
         id="rect2405" />
      <path
         d="M 0.226562,0.0507812 H 2.41797 V 1.15234 H 0.329532 V 0.210938 c 0,0 0,-0.050782 -0.044376,-0.050782 -0.044375,0 -0.058594,0 -0.058594,0 z"
         fill="#ffffff"
         id="path2407" />
      <rect
         x="0.226532"
         y="0.050781202"
         width="0.069667697"
         height="0.109375"
         fill="#c4c4c4"
         id="rect2409" />
      <circle
         cx="0.26136601"
         cy="0.105467"
         r="0.021162"
         fill="#ffffff"
         id="circle2411" />
      <path
         d="m 0.329531,0.239147 c 0.014005,0 0.025358,-0.011353 0.025358,-0.025358 0,-0.014005 -0.011353,-0.025358 -0.025358,-0.025358 -0.014005,0 -0.025358,0.011353 -0.025358,0.025358 0,0.014005 0.011353,0.025358 0.025358,0.025358 z"
         stroke="#9a916c"
         stroke-width="0.0152835"
         id="path2413" />
      <path
         d="m 0.329531,0.139157 c 0.014005,0 0.025358,-0.011354 0.025358,-0.025359 0,-0.0140047 -0.011353,-0.0253581 -0.025358,-0.0253581 -0.014005,0 -0.025358,0.0113534 -0.025358,0.0253581 0,0.014005 0.011353,0.025359 0.025358,0.025359 z"
         stroke="#9a916c"
         stroke-width="0.0152835"
         id="path2415" />
      <path
         d="m 0.429529,0.239147 c 0.014005,0 0.025359,-0.011353 0.025359,-0.025358 0,-0.014005 -0.011354,-0.025358 -0.025359,-0.025358 -0.014005,0 -0.025358,0.011353 -0.025358,0.025358 0,0.014005 0.011353,0.025358 0.025358,0.025358 z"
         stroke="#9a916c"
         stroke-width="0.0152835"
         id="path2417" />
      <path
         d="m 0.429529,0.139157 c 0.014005,0 0.025359,-0.011354 0.025359,-0.025359 0,-0.0140047 -0.011354,-0.0253581 -0.025359,-0.0253581 -0.014005,0 -0.025358,0.0113534 -0.025358,0.0253581 0,0.014005 0.011353,0.025359 0.025358,0.025359 z"
         stroke="#9a916c"
         stroke-width="0.0152835"
         id="path2419" />
      <path
         d="m 0.529532,0.239147 c 0.014005,0 0.025358,-0.011353 0.025358,-0.025358 0,-0.014005 -0.011353,-0.025358 -0.025358,-0.025358 -0.014005,0 -0.025359,0.011353 -0.025359,0.025358 0,0.014005 0.011354,0.025358 0.025359,0.025358 z"
         stroke="#9a916c"
         stroke-width="0.0152835"
         id="path2421" />
      <path
         d="m 0.529532,0.139157 c 0.014005,0 0.025358,-0.011354 0.025358,-0.025359 0,-0.0140047 -0.011353,-0.0253581 -0.025358,-0.0253581 -0.014005,0 -0.025359,0.0113534 -0.025359,0.0253581 0,0.014005 0.011354,0.025359 0.025359,0.025359 z"
         stroke="#9a916c"
         stroke-width="0.0152835"
         id="path2423" />
      <path
         d="m 0.62953,0.239147 c 0.014005,0 0.025358,-0.011353 0.025358,-0.025358 0,-0.014005 -0.011353,-0.025358 -0.025358,-0.025358 -0.014005,0 -0.025358,0.011353 -0.025358,0.025358 0,0.014005 0.011353,0.025358 0.025358,0.025358 z"
         stroke="#9a916c"
         stroke-width="0.0152835"
         id="path2425" />
      <path
         d="m 0.62953,0.139157 c 0.014005,0 0.025358,-0.011354 0.025358,-0.025359 0,-0.0140047 -0.011353,-0.0253581 -0.025358,-0.0253581 -0.014005,0 -0.025358,0.0113534 -0.025358,0.0253581 0,0.014005 0.011353,0.025359 0.025358,0.025359 z"
         stroke="#9a916c"
         stroke-width="0.0152835"
         id="path2427" />
      <path
         d="m 0.729529,0.239147 c 0.014005,0 0.025358,-0.011353 0.025358,-0.025358 0,-0.014005 -0.011353,-0.025358 -0.025358,-0.025358 -0.014005,0 -0.025359,0.011353 -0.025359,0.025358 0,0.014005 0.011354,0.025358 0.025359,0.025358 z"
         stroke="#9a916c"
         stroke-width="0.0152835"
         id="path2429" />
      <path
         d="m 0.729529,0.139157 c 0.014005,0 0.025358,-0.011354 0.025358,-0.025359 0,-0.0140047 -0.011353,-0.0253581 -0.025358,-0.0253581 -0.014005,0 -0.025359,0.0113534 -0.025359,0.0253581 0,0.014005 0.011354,0.025359 0.025359,0.025359 z"
         stroke="#9a916c"
         stroke-width="0.0152835"
         id="path2431" />
      <path
         d="m 0.829531,0.239147 c 0.014005,0 0.025358,-0.011353 0.025358,-0.025358 0,-0.014005 -0.011353,-0.025358 -0.025358,-0.025358 -0.014005,0 -0.025358,0.011353 -0.025358,0.025358 0,0.014005 0.011353,0.025358 0.025358,0.025358 z"
         stroke="#9a916c"
         stroke-width="0.0152835"
         id="path2433" />
      <path
         d="m 0.829531,0.139157 c 0.014005,0 0.025358,-0.011354 0.025358,-0.025359 0,-0.0140047 -0.011353,-0.0253581 -0.025358,-0.0253581 -0.014005,0 -0.025358,0.0113534 -0.025358,0.0253581 0,0.014005 0.011353,0.025359 0.025358,0.025359 z"
         stroke="#9a916c"
         stroke-width="0.0152835"
         id="path2435" />
      <path
         d="m 0.929529,0.239147 c 0.014005,0 0.025359,-0.011353 0.025359,-0.025358 0,-0.014005 -0.011354,-0.025358 -0.025359,-0.025358 -0.014005,0 -0.025358,0.011353 -0.025358,0.025358 0,0.014005 0.011353,0.025358 0.025358,0.025358 z"
         stroke="#9a916c"
         stroke-width="0.0152835"
         id="path2437" />
      <path
         d="m 0.929529,0.139157 c 0.014005,0 0.025359,-0.011354 0.025359,-0.025359 0,-0.0140047 -0.011354,-0.0253581 -0.025359,-0.0253581 -0.014005,0 -0.025358,0.0113534 -0.025358,0.0253581 0,0.014005 0.011353,0.025359 0.025358,0.025359 z"
         stroke="#9a916c"
         stroke-width="0.0152835"
         id="path2439" />
      <path
         d="m 1.02953,0.239147 c 0.01401,0 0.02536,-0.011353 0.02536,-0.025358 0,-0.014005 -0.01135,-0.025358 -0.02536,-0.025358 -0.014,0 -0.02536,0.011353 -0.02536,0.025358 0,0.014005 0.01136,0.025358 0.02536,0.025358 z"
         stroke="#9a916c"
         stroke-width="0.0152835"
         id="path2441" />
      <path
         d="m 1.02953,0.139157 c 0.01401,0 0.02536,-0.011354 0.02536,-0.025359 0,-0.0140047 -0.01135,-0.0253581 -0.02536,-0.0253581 -0.014,0 -0.02536,0.0113534 -0.02536,0.0253581 0,0.014005 0.01136,0.025359 0.02536,0.025359 z"
         stroke="#9a916c"
         stroke-width="0.0152835"
         id="path2443" />
      <path
         d="m 1.12953,0.239147 c 0.01401,0 0.02536,-0.011353 0.02536,-0.025358 0,-0.014005 -0.01135,-0.025358 -0.02536,-0.025358 -0.014,0 -0.02535,0.011353 -0.02535,0.025358 0,0.014005 0.01135,0.025358 0.02535,0.025358 z"
         stroke="#9a916c"
         stroke-width="0.0152835"
         id="path2445" />
      <path
         d="m 1.12953,0.139157 c 0.01401,0 0.02536,-0.011354 0.02536,-0.025359 0,-0.0140047 -0.01135,-0.0253581 -0.02536,-0.0253581 -0.014,0 -0.02535,0.0113534 -0.02535,0.0253581 0,0.014005 0.01135,0.025359 0.02535,0.025359 z"
         stroke="#9a916c"
         stroke-width="0.0152835"
         id="path2447" />
      <path
         d="m 1.22953,0.239147 c 0.01401,0 0.02536,-0.011353 0.02536,-0.025358 0,-0.014005 -0.01135,-0.025358 -0.02536,-0.025358 -0.014,0 -0.02536,0.011353 -0.02536,0.025358 0,0.014005 0.01136,0.025358 0.02536,0.025358 z"
         stroke="#9a916c"
         stroke-width="0.0152835"
         id="path2449" />
      <path
         d="m 1.22953,0.139157 c 0.01401,0 0.02536,-0.011354 0.02536,-0.025359 0,-0.0140047 -0.01135,-0.0253581 -0.02536,-0.0253581 -0.014,0 -0.02536,0.0113534 -0.02536,0.0253581 0,0.014005 0.01136,0.025359 0.02536,0.025359 z"
         stroke="#9a916c"
         stroke-width="0.0152835"
         id="path2451" />
      <path
         d="m 1.32953,0.239147 c 0.01401,0 0.02536,-0.011353 0.02536,-0.025358 0,-0.014005 -0.01135,-0.025358 -0.02536,-0.025358 -0.014,0 -0.02535,0.011353 -0.02535,0.025358 0,0.014005 0.01135,0.025358 0.02535,0.025358 z"
         stroke="#9a916c"
         stroke-width="0.0152835"
         id="path2453" />
      <path
         d="m 1.32953,0.139157 c 0.01401,0 0.02536,-0.011354 0.02536,-0.025359 0,-0.0140047 -0.01135,-0.0253581 -0.02536,-0.0253581 -0.014,0 -0.02535,0.0113534 -0.02535,0.0253581 0,0.014005 0.01135,0.025359 0.02535,0.025359 z"
         stroke="#9a916c"
         stroke-width="0.0152835"
         id="path2455" />
      <path
         d="m 1.42953,0.239147 c 0.014,0 0.02536,-0.011353 0.02536,-0.025358 0,-0.014005 -0.01136,-0.025358 -0.02536,-0.025358 -0.01401,0 -0.02536,0.011353 -0.02536,0.025358 0,0.014005 0.01135,0.025358 0.02536,0.025358 z"
         stroke="#9a916c"
         stroke-width="0.0152835"
         id="path2457" />
      <path
         d="m 1.42953,0.139157 c 0.014,0 0.02536,-0.011354 0.02536,-0.025359 0,-0.0140047 -0.01136,-0.0253581 -0.02536,-0.0253581 -0.01401,0 -0.02536,0.0113534 -0.02536,0.0253581 0,0.014005 0.01135,0.025359 0.02536,0.025359 z"
         stroke="#9a916c"
         stroke-width="0.0152835"
         id="path2459" />
      <path
         d="m 1.52953,0.239147 c 0.01401,0 0.02536,-0.011353 0.02536,-0.025358 0,-0.014005 -0.01135,-0.025358 -0.02536,-0.025358 -0.014,0 -0.02536,0.011353 -0.02536,0.025358 0,0.014005 0.01136,0.025358 0.02536,0.025358 z"
         stroke="#9a916c"
         stroke-width="0.0152835"
         id="path2461" />
      <path
         d="m 1.52953,0.139157 c 0.01401,0 0.02536,-0.011354 0.02536,-0.025359 0,-0.0140047 -0.01135,-0.0253581 -0.02536,-0.0253581 -0.014,0 -0.02536,0.0113534 -0.02536,0.0253581 0,0.014005 0.01136,0.025359 0.02536,0.025359 z"
         stroke="#9a916c"
         stroke-width="0.0152835"
         id="path2463" />
      <path
         d="m 1.62953,0.239147 c 0.01401,0 0.02536,-0.011353 0.02536,-0.025358 0,-0.014005 -0.01135,-0.025358 -0.02536,-0.025358 -0.014,0 -0.02536,0.011353 -0.02536,0.025358 0,0.014005 0.01136,0.025358 0.02536,0.025358 z"
         stroke="#9a916c"
         stroke-width="0.0152835"
         id="path2465" />
      <path
         d="m 1.62953,0.139157 c 0.01401,0 0.02536,-0.011354 0.02536,-0.025359 0,-0.0140047 -0.01135,-0.0253581 -0.02536,-0.0253581 -0.014,0 -0.02536,0.0113534 -0.02536,0.0253581 0,0.014005 0.01136,0.025359 0.02536,0.025359 z"
         stroke="#9a916c"
         stroke-width="0.0152835"
         id="path2467" />
      <path
         d="m 1.72953,0.239147 c 0.014,0 0.02536,-0.011353 0.02536,-0.025358 0,-0.014005 -0.01136,-0.025358 -0.02536,-0.025358 -0.01401,0 -0.02536,0.011353 -0.02536,0.025358 0,0.014005 0.01135,0.025358 0.02536,0.025358 z"
         stroke="#9a916c"
         stroke-width="0.0152835"
         id="path2469" />
      <path
         d="m 1.72953,0.139157 c 0.014,0 0.02536,-0.011354 0.02536,-0.025359 0,-0.0140047 -0.01136,-0.0253581 -0.02536,-0.0253581 -0.01401,0 -0.02536,0.0113534 -0.02536,0.0253581 0,0.014005 0.01135,0.025359 0.02536,0.025359 z"
         stroke="#9a916c"
         stroke-width="0.0152835"
         id="path2471" />
      <path
         d="m 1.82953,0.239147 c 0.01401,0 0.02536,-0.011353 0.02536,-0.025358 0,-0.014005 -0.01135,-0.025358 -0.02536,-0.025358 -0.014,0 -0.02536,0.011353 -0.02536,0.025358 0,0.014005 0.01136,0.025358 0.02536,0.025358 z"
         stroke="#9a916c"
         stroke-width="0.0152835"
         id="path2473" />
      <path
         d="m 1.82953,0.139157 c 0.01401,0 0.02536,-0.011354 0.02536,-0.025359 0,-0.0140047 -0.01135,-0.0253581 -0.02536,-0.0253581 -0.014,0 -0.02536,0.0113534 -0.02536,0.0253581 0,0.014005 0.01136,0.025359 0.02536,0.025359 z"
         stroke="#9a916c"
         stroke-width="0.0152835"
         id="path2475" />
      <path
         d="m 1.92953,0.239147 c 0.014,0 0.02536,-0.011353 0.02536,-0.025358 0,-0.014005 -0.01136,-0.025358 -0.02536,-0.025358 -0.01401,0 -0.02536,0.011353 -0.02536,0.025358 0,0.014005 0.01135,0.025358 0.02536,0.025358 z"
         stroke="#9a916c"
         stroke-width="0.0152835"
         id="path2477" />
      <path
         d="m 1.92953,0.139157 c 0.014,0 0.02536,-0.011354 0.02536,-0.025359 0,-0.0140047 -0.01136,-0.0253581 -0.02536,-0.0253581 -0.01401,0 -0.02536,0.0113534 -0.02536,0.0253581 0,0.014005 0.01135,0.025359 0.02536,0.025359 z"
         stroke="#9a916c"
         stroke-width="0.0152835"
         id="path2479" />
      <path
         d="m 2.02953,0.239147 c 0.01401,0 0.02536,-0.011353 0.02536,-0.025358 0,-0.014005 -0.01135,-0.025358 -0.02536,-0.025358 -0.014,0 -0.02536,0.011353 -0.02536,0.025358 0,0.014005 0.01136,0.025358 0.02536,0.025358 z"
         stroke="#9a916c"
         stroke-width="0.0152835"
         id="path2481" />
      <path
         d="m 2.02953,0.139157 c 0.01401,0 0.02536,-0.011354 0.02536,-0.025359 0,-0.0140047 -0.01135,-0.0253581 -0.02536,-0.0253581 -0.014,0 -0.02536,0.0113534 -0.02536,0.0253581 0,0.014005 0.01136,0.025359 0.02536,0.025359 z"
         stroke="#9a916c"
         stroke-width="0.0152835"
         id="path2483" />
      <path
         d="m 2.12953,0.239147 c 0.01401,0 0.02536,-0.011353 0.02536,-0.025358 0,-0.014005 -0.01135,-0.025358 -0.02536,-0.025358 -0.014,0 -0.02536,0.011353 -0.02536,0.025358 0,0.014005 0.01136,0.025358 0.02536,0.025358 z"
         stroke="#9a916c"
         stroke-width="0.0152835"
         id="path2485" />
      <path
         d="m 2.12953,0.139157 c 0.01401,0 0.02536,-0.011354 0.02536,-0.025359 0,-0.0140047 -0.01135,-0.0253581 -0.02536,-0.0253581 -0.014,0 -0.02536,0.0113534 -0.02536,0.0253581 0,0.014005 0.01136,0.025359 0.02536,0.025359 z"
         stroke="#9a916c"
         stroke-width="0.0152835"
         id="path2487" />
      <path
         d="m 2.22953,0.239147 c 0.014,0 0.02536,-0.011353 0.02536,-0.025358 0,-0.014005 -0.01136,-0.025358 -0.02536,-0.025358 -0.01401,0 -0.02536,0.011353 -0.02536,0.025358 0,0.014005 0.01135,0.025358 0.02536,0.025358 z"
         stroke="#9a916c"
         stroke-width="0.0152835"
         id="path2489" />
      <path
         d="m 2.22953,0.139157 c 0.014,0 0.02536,-0.011354 0.02536,-0.025359 0,-0.0140047 -0.01136,-0.0253581 -0.02536,-0.0253581 -0.01401,0 -0.02536,0.0113534 -0.02536,0.0253581 0,0.014005 0.01135,0.025359 0.02536,0.025359 z"
         stroke="#9a916c"
         stroke-width="0.0152835"
         id="path2491" />
    </g>
  </g>
</svg>
